<svg xmlns="http://www.w3.org/2000/svg" width="28" height="28" viewBox="0 0 28 28">
  <g id="グループ_2203" data-name="グループ 2203" transform="translate(-2 -2)">
    <path id="パス_11562" data-name="パス 11562" d="M29,10a1,1,0,0,0-1,1V27a1,1,0,0,1-1,1H5a1,1,0,0,1-1-1V5A1,1,0,0,1,5,4H21a1,1,0,0,0,0-2H5A3,3,0,0,0,2,5V27a3,3,0,0,0,3,3H27a3,3,0,0,0,3-3V11A1,1,0,0,0,29,10Z" fill="#c7bbab"/>
    <path id="パス_11563" data-name="パス 11563" d="M8.71,11.29a1,1,0,0,0-1.42,1.42l8,8A1,1,0,0,0,16,21h.07a1,1,0,0,0,.72-.39l13-17a1,1,0,0,0-1.58-1.22L15.9,18.49Z" fill="#c7bbab"/>
  </g>
</svg>
