<svg xmlns="http://www.w3.org/2000/svg" width="28.525" height="28.525"><g data-name="グループ 3" fill="#887660"><path data-name="パス 17" d="M21.686 18.87a2 2 0 0 0-3.021 0c-.706.7-1.413 1.4-2.107 2.113a.416.416 0 0 1-.582.107c-.457-.249-.944-.451-1.383-.724a21.913 21.913 0 0 1-5.283-4.808 12.516 12.516 0 0 1-1.894-3.033.435.435 0 0 1 .107-.558c.706-.683 1.395-1.383 2.089-2.083a2.006 2.006 0 0 0-.006-3.093c-.552-.558-1.1-1.1-1.656-1.662-.57-.57-1.134-1.146-1.71-1.71a2.011 2.011 0 0 0-3.021.006c-.712.7-1.395 1.419-2.119 2.107A3.44 3.44 0 0 0 .02 7.853a9.833 9.833 0 0 0 .76 4.232 25.718 25.718 0 0 0 4.565 7.6 28.247 28.247 0 0 0 9.355 7.319 13.529 13.529 0 0 0 5.182 1.508 3.8 3.8 0 0 0 3.259-1.241c.605-.677 1.288-1.294 1.929-1.941a2.019 2.019 0 0 0 .012-3.075q-1.688-1.696-3.396-3.385Z"/><path data-name="パス 18" d="m20.552 14.139 2.19-.374a9.832 9.832 0 0 0-8.315-8.067l-.309 2.2a7.6 7.6 0 0 1 6.434 6.239Z"/><path data-name="パス 19" d="M23.978 4.618A16.151 16.151 0 0 0 14.718 0l-.309 2.2a14.093 14.093 0 0 1 11.925 11.557l2.19-.374a16.269 16.269 0 0 0-4.546-8.765Z"/></g></svg>