<svg xmlns="http://www.w3.org/2000/svg" width="30.57" height="29.253"><g data-name="グループ 2087"><path data-name="中マド 1" d="M14.471 28.753a.491.491 0 0 1-.4-.155 1.089 1.089 0 0 1-.075-.824l.006-.031.211-1.269a2.852 2.852 0 0 0-.048-1.34c-.162-.406-.8-.622-1.3-.731a15.825 15.825 0 0 1-8.847-4.058 11.71 11.71 0 0 1-2.585-3.582A10.091 10.091 0 0 1 .5 12.531C.5 5.9 7.132.5 15.285.5S30.07 5.9 30.07 12.531a9.5 9.5 0 0 1-.781 3.813 12.875 12.875 0 0 1-2.389 3.59 37.521 37.521 0 0 1-6.379 5.4 39.488 39.488 0 0 1-5.237 3.211 2.229 2.229 0 0 1-.813.208ZM21 9.326a.288.288 0 0 0-.2.081h-.005a.289.289 0 0 0-.08.2v6.459a.287.287 0 0 0 .081.2.287.287 0 0 0 .2.082h4.144a.289.289 0 0 0 .287-.29v-1.024a.289.289 0 0 0-.287-.289h-2.812v-1.092h2.818a.288.288 0 0 0 .287-.289v-1.04a.289.289 0 0 0-.287-.289h-2.818v-1.092h2.818a.289.289 0 0 0 .287-.289V9.615a.288.288 0 0 0-.287-.289H21Zm-15.364 0a.289.289 0 0 0-.288.288v6.459a.287.287 0 0 0 .081.2l.005.005a.287.287 0 0 0 .2.081h4.147a.289.289 0 0 0 .287-.29v-1.035a.289.289 0 0 0-.287-.289H6.963V9.614a.288.288 0 0 0-.288-.288Zm9.552 2.912 2.955 4a.274.274 0 0 0 .073.071h.007l.011.006h.017l.014.005H18.293a.286.286 0 0 0 .074.01h1.037a.288.288 0 0 0 .288-.288V9.614a.288.288 0 0 0-.288-.288h-1.022a.288.288 0 0 0-.288.288v3.838l-2.953-4a.336.336 0 0 0-.022-.029l-.02-.02-.012-.01h-.012l-.011-.007-.015-.009H15.021l-.018-.006h-1.138a.289.289 0 0 0-.289.288v6.46a.289.289 0 0 0 .289.288H14.9a.288.288 0 0 0 .288-.288v-3.881Zm-3.944-2.912a.288.288 0 0 0-.288.288v6.46a.288.288 0 0 0 .288.288h1.037a.288.288 0 0 0 .288-.288v-6.46a.289.289 0 0 0-.288-.288Z" fill="#fff" stroke="rgba(0,0,0,0)" stroke-miterlimit="10"/></g></svg>