<svg id="telephone" xmlns="http://www.w3.org/2000/svg" width="52.125" height="52.126" viewBox="0 0 52.125 52.126">
  <g id="グループ_3" data-name="グループ 3" transform="translate(0)">
    <path id="パス_17" data-name="パス 17" d="M39.635,75.616a3.652,3.652,0,0,0-5.521,0c-1.291,1.28-2.582,2.56-3.851,3.862a.761.761,0,0,1-1.063.2c-.835-.456-1.725-.824-2.527-1.323a40.044,40.044,0,0,1-9.654-8.786,22.871,22.871,0,0,1-3.46-5.543.794.794,0,0,1,.2-1.02c1.291-1.247,2.549-2.527,3.818-3.807a3.666,3.666,0,0,0-.011-5.651c-1.009-1.02-2.018-2.018-3.026-3.037-1.041-1.041-2.072-2.093-3.124-3.124a3.676,3.676,0,0,0-5.521.011c-1.3,1.28-2.549,2.592-3.872,3.851A6.286,6.286,0,0,0,.044,55.484a17.969,17.969,0,0,0,1.388,7.734,47,47,0,0,0,8.341,13.9A51.618,51.618,0,0,0,26.868,90.487a24.723,24.723,0,0,0,9.469,2.755,6.94,6.94,0,0,0,5.955-2.267c1.106-1.237,2.354-2.365,3.525-3.547a3.69,3.69,0,0,0,.022-5.619Q42.748,78.7,39.635,75.616Z" transform="translate(-0.006 -41.133)" fill="#fff"/>
    <path id="パス_18" data-name="パス 18" d="M249.612,111.424l4-.683A17.966,17.966,0,0,0,238.418,96l-.564,4.024a13.885,13.885,0,0,1,11.758,11.4Z" transform="translate(-212.055 -85.587)" fill="#fff"/>
    <path id="パス_19" data-name="パス 19" d="M260.24,8.439A29.514,29.514,0,0,0,243.318,0l-.564,4.024a25.753,25.753,0,0,1,21.792,21.119l4-.683A29.729,29.729,0,0,0,260.24,8.439Z" transform="translate(-216.423)" fill="#fff"/>
  </g>
</svg>
