<svg xmlns="http://www.w3.org/2000/svg" width="30.57" height="29.253" viewBox="0 0 30.57 29.253">
  <g id="グループ_831" data-name="グループ 831" transform="translate(-10.243 -12.345)">
    <path id="中マド_1" data-name="中マド 1" d="M13.971,28.253a.491.491,0,0,1-.4-.155,1.089,1.089,0,0,1-.075-.824l.006-.031c.037-.223.211-1.269.211-1.269a2.852,2.852,0,0,0-.048-1.34c-.162-.406-.8-.622-1.3-.731a15.825,15.825,0,0,1-8.847-4.058A11.71,11.71,0,0,1,.933,16.263,10.091,10.091,0,0,1,0,12.031C0,5.4,6.632,0,14.785,0S29.57,5.4,29.57,12.031a9.5,9.5,0,0,1-.781,3.813A12.875,12.875,0,0,1,26.4,19.434a37.521,37.521,0,0,1-6.379,5.4,39.488,39.488,0,0,1-5.237,3.211A2.229,2.229,0,0,1,13.971,28.253ZM20.5,8.826a.288.288,0,0,0-.2.081l0,0-.005,0a.289.289,0,0,0-.08.2v6.459a.287.287,0,0,0,.081.2l0,0,0,0a.287.287,0,0,0,.2.082h4.144a.289.289,0,0,0,.287-.29V14.534a.289.289,0,0,0-.287-.289H21.828V13.153h2.818a.288.288,0,0,0,.287-.289v-1.04a.289.289,0,0,0-.287-.289H21.828V10.443h2.818a.289.289,0,0,0,.287-.289V9.115a.288.288,0,0,0-.287-.289H20.5Zm-15.364,0a.289.289,0,0,0-.288.288v6.459a.287.287,0,0,0,.081.2l0,0,.005.005a.287.287,0,0,0,.2.081H9.281a.289.289,0,0,0,.287-.29V14.534a.289.289,0,0,0-.287-.289H6.463V9.114a.288.288,0,0,0-.288-.288Zm9.552,2.912h0l2.955,4a.274.274,0,0,0,.073.071l0,0,.007,0,.011.006.008,0,.009,0,0,0,.014.005.008,0,.01,0,.01,0h0a.286.286,0,0,0,.074.01h1.037a.288.288,0,0,0,.288-.288V9.114a.288.288,0,0,0-.288-.288H17.882a.288.288,0,0,0-.288.288v3.838l-2.953-4a.336.336,0,0,0-.022-.029l-.02-.02,0,0,0,0-.012-.01-.006,0-.006,0-.011-.007,0,0,0,0-.015-.009-.009,0,0,0-.012,0-.007,0-.018-.006-.012,0-.016,0-.012,0-.013,0H13.365a.289.289,0,0,0-.289.288v6.46a.289.289,0,0,0,.289.288H14.4a.288.288,0,0,0,.288-.288V11.738ZM10.744,8.826a.288.288,0,0,0-.288.288v6.46a.288.288,0,0,0,.288.288h1.037a.288.288,0,0,0,.288-.288V9.114a.289.289,0,0,0-.288-.288Z" transform="translate(10.743 12.845)" fill="#fff" stroke="rgba(0,0,0,0)" stroke-miterlimit="10" stroke-width="1"/>
  </g>
</svg>
