<svg id="telephone" xmlns="http://www.w3.org/2000/svg" width="15.688" height="15.689" viewBox="0 0 15.688 15.689">
  <g id="グループ_3" data-name="グループ 3" transform="translate(0)">
    <path id="パス_17" data-name="パス 17" d="M11.933,55.01a1.1,1.1,0,0,0-1.662,0c-.388.385-.777.77-1.159,1.162a.229.229,0,0,1-.32.059c-.251-.137-.519-.248-.761-.4a12.052,12.052,0,0,1-2.906-2.644A6.883,6.883,0,0,1,4.085,51.52a.239.239,0,0,1,.059-.307c.388-.375.767-.761,1.149-1.146a1.1,1.1,0,0,0,0-1.7c-.3-.307-.607-.607-.911-.914s-.624-.63-.94-.94a1.106,1.106,0,0,0-1.662,0c-.392.385-.767.78-1.165,1.159A1.892,1.892,0,0,0,.017,48.95a5.408,5.408,0,0,0,.418,2.328A14.144,14.144,0,0,0,2.946,55.46a15.536,15.536,0,0,0,5.145,4.025,7.441,7.441,0,0,0,2.85.829,2.089,2.089,0,0,0,1.792-.682c.333-.372.708-.712,1.061-1.068a1.111,1.111,0,0,0,.007-1.691Q12.87,55.938,11.933,55.01Z" transform="translate(-0.006 -44.631)" fill="#fff"/>
    <path id="パス_18" data-name="パス 18" d="M241.393,100.642l1.2-.206A5.407,5.407,0,0,0,238.024,96l-.17,1.211a4.179,4.179,0,0,1,3.539,3.431Z" transform="translate(-230.089 -92.866)" fill="#fff"/>
    <path id="パス_19" data-name="パス 19" d="M248.017,2.54A8.883,8.883,0,0,0,242.924,0l-.17,1.211a7.751,7.751,0,0,1,6.559,6.356l1.2-.206A8.948,8.948,0,0,0,248.017,2.54Z" transform="translate(-234.829)" fill="#fff"/>
  </g>
</svg>
